ffmpeg started on 2016-12-07 at 23:46:41
Report written to "Output/x264/results/ffmpeg/sintelslower4000k.log"
Command line:
Tools/ffmpeg/ffmpeg -benchmark -y -i Input/y4m/sintel.y4m -c:v libx264 -preset slower -b:v 4000k -an Output/x264/encoded/sintelslower4000k.mkv
ffmpeg version N-82227-gdb23fde Copyright (c) 2000-2016 the FFmpeg developers
  built with gcc 5.4.0 (Ubuntu 5.4.0-6ubuntu1~16.04.2) 20160609
  configuration: --prefix=/home/jaroslav/ffmpeg_build --pkg-config-flags=--static --extra-cflags=-I/home/jaroslav/ffmpeg_build/include --extra-ldflags=-L/home/jaroslav/ffmpeg_build/lib --bindir=/home/jaroslav/bin --enable-gpl --enable-libass --enable-libfdk-aac --enable-libfreetype --enable-libmp3lame --enable-libopus --enable-libtheora --enable-libvorbis --enable-libvpx --enable-libx264 --enable-libx265 --enable-nvenc --enable-libmfx --enable-libxvid --enable-libgsm --enable-libopencore-amrnb --enable-version3 --enable-nonfree
  libavutil      55. 35.100 / 55. 35.100
  libavcodec     57. 66.101 / 57. 66.101
  libavformat    57. 57.100 / 57. 57.100
  libavdevice    57.  2.100 / 57.  2.100
  libavfilter     6. 66.100 /  6. 66.100
  libswscale      4.  3.100 /  4.  3.100
  libswresample   2.  4.100 /  2.  4.100
  libpostproc    54.  2.100 / 54.  2.100
Input #0, yuv4mpegpipe, from 'Input/y4m/sintel.y4m':
  Duration: 00:00:20.83, start: 0.000000, bitrate: 2057307 kb/s
    Stream #0:0: Video: rawvideo (I420 / 0x30323449), yuv420p(progressive), 4096x1744, SAR 1:1 DAR 256:109, 24 fps, 24 tbr, 24 tbn, 24 tbc
[libx264 @ 0x3b761c0] using SAR=1/1
[libx264 @ 0x3b761c0] DPB size (8 frames, 223232 mbs) > level limit (6 frames, 184320 mbs)
[libx264 @ 0x3b761c0] using cpu capabilities: MMX2 SSE2Fast SSSE3 SSE4.2 AVX FMA3 AVX2 LZCNT BMI2
[libx264 @ 0x3b761c0] profile High, level 5.2
[libx264 @ 0x3b761c0] 264 - core 148 - H.264/MPEG-4 AVC codec - Copyleft 2003-2016 - http://www.videolan.org/x264.html - options: cabac=1 ref=8 deblock=1:0:0 analyse=0x3:0x133 me=umh subme=9 psy=1 psy_rd=1.00:0.00 mixed_ref=1 me_range=16 chroma_me=1 trellis=2 8x8dct=1 cqm=0 deadzone=21,11 fast_pskip=1 chroma_qp_offset=-2 threads=6 lookahead_threads=1 sliced_threads=0 nr=0 decimate=1 interlaced=0 bluray_compat=0 constrained_intra=0 bframes=3 b_pyramid=2 b_adapt=2 b_bias=0 direct=3 weightb=1 open_gop=0 weightp=2 keyint=250 keyint_min=24 scenecut=40 intra_refresh=0 rc_lookahead=60 rc=abr mbtree=1 bitrate=4000 ratetol=1.0 qcomp=0.60 qpmin=0 qpmax=69 qpstep=4 ip_ratio=1.40 aq=1:1.00
Output #0, matroska, to 'Output/x264/encoded/sintelslower4000k.mkv':
  Metadata:
    encoder         : Lavf57.57.100
    Stream #0:0: Video: h264 (libx264) (H264 / 0x34363248), yuv420p, 4096x1744 [SAR 1:1 DAR 256:109], q=-1--1, 4000 kb/s, 24 fps, 1k tbn, 24 tbc
    Metadata:
      encoder         : Lavc57.66.101 libx264
    Side data:
      cpb: bitrate max/min/avg: 0/0/4000000 buffer size: 0 vbv_delay: -1
Stream mapping:
  Stream #0:0 -> #0:0 (rawvideo (native) -> h264 (libx264))
Press [q] to stop, [?] for help
frame=   10 fps=0.0 q=0.0 size=       0kB time=00:00:00.00 bitrate=N/A speed=   0x    frame=   19 fps= 18 q=0.0 size=       0kB time=00:00:00.00 bitrate=N/A speed=   0x    frame=   28 fps= 18 q=0.0 size=       0kB time=00:00:00.00 bitrate=N/A speed=   0x    frame=   37 fps= 18 q=0.0 size=       0kB time=00:00:00.00 bitrate=N/A speed=   0x    frame=   44 fps= 16 q=0.0 size=       0kB time=00:00:00.00 bitrate=N/A speed=   0x    frame=   53 fps= 16 q=0.0 size=       0kB time=00:00:00.00 bitrate=N/A speed=   0x    frame=   54 fps=8.3 q=0.0 size=       0kB time=00:00:00.00 bitrate=N/A speed=   0x    frame=   55 fps=5.6 q=0.0 size=       0kB time=00:00:00.00 bitrate=N/A speed=   0x    frame=   56 fps=5.2 q=0.0 size=       0kB time=00:00:00.00 bitrate=N/A speed=   0x    frame=   65 fps=5.8 q=0.0 size=       0kB time=00:00:00.00 bitrate=N/A speed=   0x    frame=   67 fps=3.7 q=0.0 size=       0kB time=00:00:00.00 bitrate=N/A speed=   0x    frame=   71 fps=3.8 q=32.0 size=       1kB time=-00:00:00.08 bitrate=N/A speed=N/A    frame=   73 fps=3.8 q=41.0 size=       1kB time=00:00:00.00 bitrate=5888.0kbits/s speed=5.19e-05x    frame=   75 fps=3.7 q=39.0 size=       1kB time=00:00:00.08 bitrate=  70.1kbits/s speed=0.00415x    frame=   77 fps=3.6 q=45.0 size=       1kB time=00:00:00.16 bitrate=  35.0kbits/s speed=0.0078x    frame=   78 fps=3.5 q=51.0 size=       1kB time=00:00:00.20 bitrate=  28.2kbits/s speed=0.00936x    frame=   83 fps=3.6 q=50.0 size=       1kB time=00:00:00.41 bitrate=  14.1kbits/s speed=0.0179x    frame=   84 fps=3.5 q=50.0 size=       1kB time=00:00:00.45 bitrate=  12.8kbits/s speed=0.0191x    frame=   86 fps=3.4 q=50.0 size=       1kB time=00:00:00.54 bitrate=  10.8kbits/s speed=0.0213x    frame=   90 fps=3.4 q=50.0 size=       1kB time=00:00:00.70 bitrate=   8.3kbits/s speed=0.0271x    frame=   92 fps=3.4 q=50.0 size=       1kB time=00:00:00.79 bitrate=   7.4kbits/s speed=0.0289x    frame=   93 fps=3.3 q=50.0 size=       1kB time=00:00:00.83 bitrate=   7.1kbits/s speed=0.0298x    frame=   95 fps=3.3 q=50.0 size=       1kB time=00:00:00.91 bitrate=   6.4kbits/s speed=0.0317x    frame=   98 fps=3.3 q=50.0 size=       1kB time=00:00:01.04 bitrate=   5.6kbits/s speed=0.0352x    frame=  101 fps=3.3 q=50.0 size=       1kB time=00:00:01.16 bitrate=   5.0kbits/s speed=0.0378x    frame=  103 fps=3.3 q=50.0 size=       1kB time=00:00:01.25 bitrate=   4.7kbits/s speed=0.0398x    frame=  105 fps=3.2 q=49.0 size=       1kB time=00:00:01.33 bitrate=   4.4kbits/s speed=0.0413x    frame=  107 fps=3.2 q=49.0 size=       1kB time=00:00:01.41 bitrate=   4.2kbits/s speed=0.0428x    frame=  108 fps=3.2 q=49.0 size=       1kB time=00:00:01.45 bitrate=   4.0kbits/s speed=0.0431x    frame=  111 fps=3.2 q=49.0 size=       1kB time=00:00:01.58 bitrate=   3.7kbits/s speed=0.0453x    frame=  113 fps=3.2 q=49.0 size=       1kB time=00:00:01.66 bitrate=   3.5kbits/s speed=0.0471x    frame=  116 fps=3.2 q=49.0 size=       1kB time=00:00:01.79 bitrate=   3.3kbits/s speed=0.0498x    frame=  117 fps=3.2 q=49.0 size=       1kB time=00:00:01.83 bitrate=   3.2kbits/s speed=0.0501x    frame=  120 fps=3.2 q=48.0 size=       1kB time=00:00:01.95 bitrate=   3.0kbits/s speed=0.0527x    frame=  121 fps=3.2 q=48.0 size=       1kB time=00:00:02.00 bitrate=   2.9kbits/s speed=0.0527x    frame=  123 fps=3.2 q=48.0 size=       1kB time=00:00:02.08 bitrate=   2.8kbits/s speed=0.0539x    frame=  124 fps=3.1 q=48.0 size=       1kB time=00:00:02.12 bitrate=   2.8kbits/s speed=0.0539x    frame=  125 fps=3.1 q=48.0 size=       1kB time=00:00:02.16 bitrate=   2.7kbits/s speed=0.0543x    frame=  127 fps=3.1 q=48.0 size=       1kB time=00:00:02.25 bitrate=   2.6kbits/s speed=0.0551x    frame=  129 fps=3.1 q=48.0 size=       1kB time=00:00:02.33 bitrate=   2.5kbits/s speed=0.0562x    frame=  130 fps=3.1 q=48.0 size=       1kB time=00:00:02.37 bitrate=   2.5kbits/s speed=0.0561x    frame=  132 fps=3.1 q=48.0 size=       1kB time=00:00:02.45 bitrate=   2.4kbits/s speed=0.057x    frame=  134 fps=3.1 q=48.0 size=       1kB time=00:00:02.54 bitrate=   2.3kbits/s speed=0.058x    frame=  136 fps=3.0 q=48.0 size=       1kB time=00:00:02.62 bitrate=   2.2kbits/s speed=0.0588x    frame=  137 fps=3.0 q=48.0 size=       1kB time=00:00:02.66 bitrate=   2.2kbits/s speed=0.0579x    frame=  139 fps=3.0 q=48.0 size=       1kB time=00:00:02.75 bitrate=   2.1kbits/s speed=0.059x    frame=  141 fps=3.0 q=48.0 size=       1kB time=00:00:02.83 bitrate=   2.1kbits/s speed=0.0601x    frame=  143 fps=2.9 q=48.0 size=       1kB time=00:00:02.91 bitrate=   2.0kbits/s speed=0.06x    frame=  144 fps=2.9 q=48.0 size=       1kB time=00:00:02.95 bitrate=   2.0kbits/s speed=0.0601x    frame=  146 fps=2.9 q=48.0 size=       1kB time=00:00:03.04 bitrate=   1.9kbits/s speed=0.061x    frame=  148 fps=2.9 q=48.0 size=       1kB time=00:00:03.12 bitrate=   1.9kbits/s speed=0.0619x    frame=  149 fps=2.9 q=48.0 size=       1kB time=00:00:03.16 bitrate=   1.9kbits/s speed=0.0616x    frame=  150 fps=2.9 q=48.0 size=       1kB time=00:00:03.20 bitrate=   1.8kbits/s speed=0.0614x    frame=  152 fps=2.9 q=48.0 size=       1kB time=00:00:03.29 bitrate=   1.8kbits/s speed=0.0623x    frame=  153 fps=2.9 q=48.0 size=       1kB time=00:00:03.33 bitrate=   1.8kbits/s speed=0.0623x    frame=  155 fps=2.9 q=48.0 size=       1kB time=00:00:03.41 bitrate=   1.7kbits/s speed=0.0631x    frame=  156 fps=2.8 q=48.0 size=       1kB time=00:00:03.45 bitrate=   1.7kbits/s speed=0.0629x    frame=  157 fps=2.8 q=48.0 size=       1kB time=00:00:03.50 bitrate=   1.7kbits/s speed=0.0629x    frame=  159 fps=2.8 q=48.0 size=       1kB time=00:00:03.58 bitrate=   1.6kbits/s speed=0.0632x    frame=  161 fps=2.8 q=48.0 size=       1kB time=00:00:03.66 bitrate=   1.6kbits/s speed=0.0638x    frame=  163 fps=2.8 q=48.0 size=       1kB time=00:00:03.75 bitrate=   1.6kbits/s speed=0.0643x    frame=  165 fps=2.8 q=48.0 size=       1kB time=00:00:03.83 bitrate=   1.5kbits/s speed=0.0649x    frame=  167 fps=2.8 q=48.0 size=       1kB time=00:00:03.91 bitrate=   1.5kbits/s speed=0.0648x    frame=  170 fps=2.8 q=48.0 size=       1kB time=00:00:04.04 bitrate=   1.5kbits/s speed=0.066x    frame=  172 fps=2.8 q=48.0 size=       1kB time=00:00:04.12 bitrate=   1.4kbits/s speed=0.0668x    frame=  173 fps=2.7 q=48.0 size=       1kB time=00:00:04.16 bitrate=   1.4kbits/s speed=0.0662x    frame=  177 fps=2.8 q=47.0 size=       1kB time=00:00:04.33 bitrate=   1.4kbits/s speed=0.0679x    frame=  179 fps=2.8 q=47.0 size=       1kB time=00:00:04.41 bitrate=   1.3kbits/s speed=0.0684x    frame=  181 fps=2.8 q=45.0 size=       1kB time=00:00:04.50 bitrate=   1.3kbits/s speed=0.069x    frame=  183 fps=2.8 q=47.0 size=       1kB time=00:00:04.58 bitrate=   1.3kbits/s speed=0.0695x    frame=  185 fps=2.8 q=47.0 size=       1kB time=00:00:04.66 bitrate=   1.3kbits/s speed=0.0702x    frame=  191 fps=2.8 q=47.0 size=    2565kB time=00:00:04.91 bitrate=4273.0kbits/s speed=0.0732x    frame=  193 fps=2.8 q=47.0 size=    2565kB time=00:00:05.00 bitrate=4202.1kbits/s speed=0.0736x    frame=  195 fps=2.8 q=47.0 size=    2565kB time=00:00:05.08 bitrate=4133.5kbits/s speed=0.074x    frame=  197 fps=2.8 q=47.0 size=    2565kB time=00:00:05.16 bitrate=4066.3kbits/s speed=0.0743x    frame=  199 fps=2.8 q=47.0 size=    2565kB time=00:00:05.25 bitrate=4002.0kbits/s speed=0.0749x    frame=  200 fps=2.8 q=47.0 size=    2565kB time=00:00:05.29 bitrate=3970.3kbits/s speed=0.0749x    frame=  202 fps=2.8 q=47.0 size=    2565kB time=00:00:05.37 bitrate=3909.0kbits/s speed=0.0753x    frame=  203 fps=2.8 q=47.0 size=    2565kB time=00:00:05.41 bitrate=3878.7kbits/s speed=0.0753x    frame=  205 fps=2.8 q=47.0 size=    2565kB time=00:00:05.50 bitrate=3820.2kbits/s speed=0.0758x    frame=  207 fps=2.8 q=47.0 size=    2565kB time=00:00:05.58 bitrate=3763.4kbits/s speed=0.0763x    frame=  209 fps=2.8 q=47.0 size=    2565kB time=00:00:05.66 bitrate=3707.6kbits/s speed=0.0768x    frame=  211 fps=2.8 q=47.0 size=    2565kB time=00:00:05.75 bitrate=3654.1kbits/s speed=0.0774x    frame=  213 fps=2.8 q=47.0 size=    2565kB time=00:00:05.83 bitrate=3602.1kbits/s speed=0.0778x    frame=  215 fps=2.8 q=47.0 size=    2565kB time=00:00:05.91 bitrate=3551.0kbits/s speed=0.0783x    frame=  217 fps=2.9 q=47.0 size=    2565kB time=00:00:06.00 bitrate=3501.9kbits/s speed=0.0788x    frame=  219 fps=2.9 q=47.0 size=    2565kB time=00:00:06.08 bitrate=3454.1kbits/s speed=0.0793x    frame=  221 fps=2.8 q=47.0 size=    2565kB time=00:00:06.16 bitrate=3407.1kbits/s speed=0.0795x    frame=  222 fps=2.8 q=47.0 size=    2565kB time=00:00:06.20 bitrate=3384.6kbits/s speed=0.0795x    frame=  225 fps=2.9 q=47.0 size=    2565kB time=00:00:06.33 bitrate=3317.8kbits/s speed=0.0805x    frame=  228 fps=2.8 q=47.0 size=    2565kB time=00:00:06.45 bitrate=3253.6kbits/s speed=0.0801x    frame=  231 fps=2.8 q=47.0 size=    2565kB time=00:00:06.58 bitrate=3191.8kbits/s speed=0.0812x    frame=  233 fps=2.9 q=47.0 size=    2565kB time=00:00:06.66 bitrate=3151.6kbits/s speed=0.0817x    frame=  234 fps=2.8 q=47.0 size=    2565kB time=00:00:06.70 bitrate=3132.3kbits/s speed=0.0813x    frame=  236 fps=2.8 q=47.0 size=    2565kB time=00:00:06.79 bitrate=3093.6kbits/s speed=0.0813x    frame=  238 fps=2.8 q=47.0 size=    2565kB time=00:00:06.87 bitrate=3056.2kbits/s speed=0.0816x    frame=  241 fps=2.8 q=47.0 size=    2565kB time=00:00:07.00 bitrate=3001.7kbits/s speed=0.0819x    frame=  242 fps=2.8 q=47.0 size=    2565kB time=00:00:07.04 bitrate=2983.8kbits/s speed=0.0818x    frame=  244 fps=2.8 q=47.0 size=    2565kB time=00:00:07.12 bitrate=2949.0kbits/s speed=0.0821x    frame=  246 fps=2.8 q=47.0 size=    2565kB time=00:00:07.20 bitrate=2915.1kbits/s speed=0.0823x    frame=  248 fps=2.8 q=47.0 size=    2565kB time=00:00:07.29 bitrate=2881.5kbits/s speed=0.0825x    frame=  249 fps=2.8 q=44.0 size=    2565kB time=00:00:07.33 bitrate=2865.4kbits/s speed=0.0823x    frame=  250 fps=2.8 q=47.0 size=    2565kB time=00:00:07.37 bitrate=2849.1kbits/s speed=0.0823x    frame=  253 fps=2.8 q=47.0 size=    2565kB time=00:00:07.50 bitrate=2801.6kbits/s speed=0.0832x    frame=  260 fps=2.9 q=46.0 size=    3833kB time=00:00:07.79 bitrate=4029.7kbits/s speed=0.0857x    frame=  262 fps=2.9 q=46.0 size=    3833kB time=00:00:07.87 bitrate=3987.3kbits/s speed=0.086x    frame=  265 fps=2.9 q=46.0 size=    3833kB time=00:00:08.00 bitrate=3925.0kbits/s speed=0.0867x    frame=  266 fps=2.9 q=46.0 size=    3833kB time=00:00:08.04 bitrate=3904.5kbits/s speed=0.0866x    frame=  268 fps=2.9 q=46.0 size=    3833kB time=00:00:08.12 bitrate=3864.6kbits/s speed=0.0867x    frame=  270 fps=2.9 q=46.0 size=    3833kB time=00:00:08.20 bitrate=3825.5kbits/s speed=0.0869x    frame=  272 fps=2.9 q=46.0 size=    3833kB time=00:00:08.29 bitrate=3786.8kbits/s speed=0.087x    frame=  274 fps=2.9 q=46.0 size=    3833kB time=00:00:08.37 bitrate=3749.3kbits/s speed=0.0872x    frame=  277 fps=2.9 q=46.0 size=    3833kB time=00:00:08.50 bitrate=3694.1kbits/s speed=0.0879x    frame=  279 fps=2.9 q=46.0 size=    3833kB time=00:00:08.58 bitrate=3658.4kbits/s speed=0.0877x    frame=  283 fps=2.9 q=46.0 size=    3833kB time=00:00:08.75 bitrate=3588.6kbits/s speed=0.089x    frame=  285 fps=2.9 q=46.0 size=    3833kB time=00:00:08.83 bitrate=3554.9kbits/s speed=0.0892x    frame=  287 fps=2.9 q=46.0 size=    3833kB time=00:00:08.91 bitrate=3521.4kbits/s speed=0.0892x    frame=  291 fps=2.9 q=46.0 size=    3833kB time=00:00:09.08 bitrate=3457.0kbits/s speed=0.0902x    frame=  293 fps=2.9 q=46.0 size=    3833kB time=00:00:09.16 bitrate=3425.4kbits/s speed=0.0904x    frame=  296 fps=2.9 q=46.0 size=    3833kB time=00:00:09.29 bitrate=3379.3kbits/s speed=0.0911x    frame=  298 fps=2.9 q=45.0 size=    3833kB time=00:00:09.37 bitrate=3349.4kbits/s speed=0.0914x    frame=  300 fps=2.9 q=45.0 size=    3833kB time=00:00:09.45 bitrate=3320.0kbits/s speed=0.0917x    frame=  301 fps=2.9 q=45.0 size=    3833kB time=00:00:09.50 bitrate=3305.3kbits/s speed=0.0916x    frame=  306 fps=2.9 q=45.0 size=    3833kB time=00:00:09.70 bitrate=3234.5kbits/s speed=0.0931x    frame=  307 fps=2.9 q=45.0 size=    3833kB time=00:00:09.75 bitrate=3220.6kbits/s speed=0.093x    frame=  310 fps=2.9 q=45.0 size=    3833kB time=00:00:09.87 bitrate=3179.8kbits/s speed=0.0935x    frame=  312 fps=2.9 q=45.0 size=    3833kB time=00:00:09.95 bitrate=3153.3kbits/s speed=0.0937x    frame=  317 fps=3.0 q=45.0 size=    3833kB time=00:00:10.16 bitrate=3088.5kbits/s speed=0.095x    frame=  320 fps=3.0 q=45.0 size=    3833kB time=00:00:10.29 bitrate=3051.0kbits/s speed=0.0949x    frame=  324 fps=3.0 q=44.0 size=    3833kB time=00:00:10.45 bitrate=3002.6kbits/s speed=0.0959x    frame=  327 fps=3.0 q=44.0 size=    3833kB time=00:00:10.58 bitrate=2967.1kbits/s speed=0.0963x    frame=  330 fps=3.0 q=44.0 size=    3833kB time=00:00:10.70 bitrate=2932.5kbits/s speed=0.0969x    frame=  333 fps=3.0 q=44.0 size=    3833kB time=00:00:10.83 bitrate=2898.6kbits/s speed=0.0975x    frame=  340 fps=3.0 q=44.0 size=    4964kB time=00:00:11.12 bitrate=3655.2kbits/s speed=0.0995x    frame=  344 fps=3.1 q=44.0 size=    4964kB time=00:00:11.29 bitrate=3601.1kbits/s speed=0.101x    frame=  348 fps=3.1 q=44.0 size=    4964kB time=00:00:11.45 bitrate=3549.0kbits/s speed=0.101x    frame=  352 fps=3.1 q=44.0 size=    4964kB time=00:00:11.62 bitrate=3498.0kbits/s speed=0.102x    frame=  355 fps=3.1 q=44.0 size=    4964kB time=00:00:11.75 bitrate=3460.8kbits/s speed=0.102x    frame=  360 fps=3.1 q=43.0 size=    4964kB time=00:00:11.95 bitrate=3400.6kbits/s speed=0.103x    frame=  363 fps=3.1 q=43.0 size=    4964kB time=00:00:12.08 bitrate=3365.4kbits/s speed=0.104x    frame=  367 fps=3.1 q=43.0 size=    4964kB time=00:00:12.25 bitrate=3319.5kbits/s speed=0.105x    frame=  370 fps=3.1 q=43.0 size=    4964kB time=00:00:12.37 bitrate=3286.0kbits/s speed=0.105x    frame=  375 fps=3.2 q=43.0 size=    4964kB time=00:00:12.58 bitrate=3231.7kbits/s speed=0.106x    frame=  378 fps=3.2 q=42.0 size=    4964kB time=00:00:12.70 bitrate=3199.9kbits/s speed=0.107x    frame=  383 fps=3.2 q=42.0 size=    4964kB time=00:00:12.91 bitrate=3148.1kbits/s speed=0.108x    frame=  388 fps=3.2 q=42.0 size=    4964kB time=00:00:13.12 bitrate=3098.2kbits/s speed=0.109x    frame=  391 fps=3.2 q=42.0 size=    4964kB time=00:00:13.25 bitrate=3069.0kbits/s speed=0.109x    frame=  394 fps=3.2 q=42.0 size=    4964kB time=00:00:13.37 bitrate=3040.3kbits/s speed=0.11x    frame=  397 fps=3.2 q=41.0 size=    4964kB time=00:00:13.50 bitrate=3012.2kbits/s speed=0.11x    frame=  401 fps=3.3 q=41.0 size=    4964kB time=00:00:13.66 bitrate=2975.4kbits/s speed=0.111x    frame=  404 fps=3.3 q=41.0 size=    4964kB time=00:00:13.79 bitrate=2948.4kbits/s speed=0.112x    frame=  408 fps=3.3 q=41.0 size=    4964kB time=00:00:13.95 bitrate=2913.4kbits/s speed=0.113x    frame=  411 fps=3.3 q=41.0 size=    4964kB time=00:00:14.08 bitrate=2887.5kbits/s speed=0.113x    frame=  416 fps=3.3 q=41.0 size=    4964kB time=00:00:14.29 bitrate=2845.3kbits/s speed=0.114x    frame=  419 fps=3.3 q=41.0 size=    4964kB time=00:00:14.41 bitrate=2820.6kbits/s speed=0.115x    frame=  423 fps=3.3 q=40.0 size=    4964kB time=00:00:14.58 bitrate=2788.5kbits/s speed=0.115x    frame=  425 fps=3.3 q=40.0 size=    4964kB time=00:00:14.66 bitrate=2772.5kbits/s speed=0.116x    frame=  431 fps=3.4 q=40.0 size=    4964kB time=00:00:14.91 bitrate=2726.1kbits/s speed=0.117x    frame=  438 fps=3.4 q=40.0 size=    6005kB time=00:00:15.20 bitrate=3234.3kbits/s speed=0.118x    frame=  439 fps=3.4 q=40.0 size=    6005kB time=00:00:15.25 bitrate=3225.4kbits/s speed=0.118x    frame=  443 fps=3.4 q=40.0 size=    6005kB time=00:00:15.41 bitrate=3190.5kbits/s speed=0.119x    frame=  445 fps=3.4 q=40.0 size=    6005kB time=00:00:15.50 bitrate=3173.4kbits/s speed=0.119x    frame=  447 fps=3.4 q=40.0 size=    6005kB time=00:00:15.58 bitrate=3156.5kbits/s speed=0.119x    frame=  450 fps=3.4 q=40.0 size=    6005kB time=00:00:15.70 bitrate=3131.4kbits/s speed=0.119x    frame=  454 fps=3.4 q=40.0 size=    6005kB time=00:00:15.87 bitrate=3098.5kbits/s speed=0.12x    frame=  458 fps=3.4 q=39.0 size=    6005kB time=00:00:16.04 bitrate=3066.2kbits/s speed=0.12x    frame=  460 fps=3.4 q=39.0 size=    6005kB time=00:00:16.12 bitrate=3050.4kbits/s speed=0.12x    frame=  464 fps=3.4 q=39.0 size=    6005kB time=00:00:16.29 bitrate=3019.2kbits/s speed=0.12x    frame=  466 fps=3.4 q=39.0 size=    6005kB time=00:00:16.37 bitrate=3003.9kbits/s speed=0.12x    frame=  470 fps=3.4 q=39.0 size=    6005kB time=00:00:16.54 bitrate=2973.5kbits/s speed=0.121x    frame=  471 fps=3.4 q=39.0 size=    6005kB time=00:00:16.58 bitrate=2966.2kbits/s speed=0.12x    frame=  477 fps=3.4 q=39.0 size=    6005kB time=00:00:16.83 bitrate=2922.1kbits/s speed=0.121x    frame=  481 fps=3.4 q=39.0 size=    6005kB time=00:00:17.00 bitrate=2893.4kbits/s speed=0.122x    frame=  484 fps=3.4 q=37.0 size=    6005kB time=00:00:17.12 bitrate=2872.3kbits/s speed=0.122x    frame=  486 fps=3.4 q=39.0 size=    6005kB time=00:00:17.20 bitrate=2858.4kbits/s speed=0.122x    frame=  492 fps=3.5 q=39.0 size=    6981kB time=00:00:17.45 bitrate=3275.4kbits/s speed=0.123x    frame=  494 fps=3.5 q=39.0 size=    6981kB time=00:00:17.54 bitrate=3259.7kbits/s speed=0.123x    frame=  498 fps=3.5 q=39.0 size=    6981kB time=00:00:17.70 bitrate=3229.2kbits/s speed=0.124x    frame=  500 fps=3.2 q=-1.0 Lsize=    8298kB time=00:00:20.70 bitrate=3282.3kbits/s speed=0.132x    
video:8293kB audio:0kB subtitle:0kB other streams:0kB global headers:0kB muxing overhead: 0.055475%
bench: utime=548.512s
bench: maxrss=2148616kB
[libx264 @ 0x3b761c0] frame I:6     Avg QP:33.58  size: 73585
[libx264 @ 0x3b761c0] frame P:273   Avg QP:40.20  size: 21341
[libx264 @ 0x3b761c0] frame B:221   Avg QP:39.60  size: 10063
[libx264 @ 0x3b761c0] consecutive B-frames: 35.2% 11.6% 18.0% 35.2%
[libx264 @ 0x3b761c0] mb I  I16..4: 24.8% 74.0%  1.2%
[libx264 @ 0x3b761c0] mb P  I16..4:  9.4% 35.6%  0.0%  P16..4: 11.7%  0.4%  0.4%  0.0%  0.0%    skip:42.6%
[libx264 @ 0x3b761c0] mb B  I16..4:  0.7%  1.1%  0.0%  B16..8: 23.6%  0.8%  0.1%  direct: 0.2%  skip:73.5%  L0:38.7% L1:60.7% BI: 0.6%
[libx264 @ 0x3b761c0] final ratefactor: 36.99
[libx264 @ 0x3b761c0] 8x8 transform intra:78.3% inter:92.0%
[libx264 @ 0x3b761c0] direct mvs  spatial:99.1% temporal:0.9%
[libx264 @ 0x3b761c0] coded y,uvDC,uvAC intra: 7.9% 14.7% 0.2% inter: 1.1% 1.2% 0.0%
[libx264 @ 0x3b761c0] i16 v,h,dc,p: 23% 34%  7% 37%
[libx264 @ 0x3b761c0] i8 v,h,dc,ddl,ddr,vr,hd,vl,hu: 28%  9% 57%  1%  1%  1%  1%  1%  1%
[libx264 @ 0x3b761c0] i4 v,h,dc,ddl,ddr,vr,hd,vl,hu: 17% 16% 11%  8% 11%  9% 12%  6% 11%
[libx264 @ 0x3b761c0] i8c dc,h,v,p: 93%  5%  2%  0%
[libx264 @ 0x3b761c0] Weighted P-Frames: Y:1.1% UV:0.7%
[libx264 @ 0x3b761c0] ref P L0: 59.1%  8.8% 15.0%  4.6%  3.6%  3.0%  3.3%  2.0%  0.7%  0.0%
[libx264 @ 0x3b761c0] ref B L0: 86.0%  7.2%  3.4%  1.3%  1.0%  0.8%  0.3%
[libx264 @ 0x3b761c0] ref B L1: 98.4%  1.6%
[libx264 @ 0x3b761c0] kb/s:3260.69
